<svg fill="#000000" xmlns="http://www.w3.org/2000/svg"  viewBox="0 0 24 24" width="48px" height="48px"><path d="M 15.28125 2.65625 C 14.839844 2.683594 14.414063 2.917969 14 3.40625 C 13.5 4.007813 13.3125 4.699219 13.3125 5.5 C 13.3125 5.5 13.40625 5.492188 13.40625 5.59375 C 14.207031 6.195313 14.5 6.792969 14.5 7.59375 C 15.300781 7.394531 16.085938 7.8125 16.6875 8.3125 C 17.386719 8.210938 18.09375 7.914063 18.59375 7.3125 C 19.695313 6.011719 18.792969 4.914063 17.59375 3.8125 C 16.78125 3.125 16.015625 2.609375 15.28125 2.65625 Z M 8.75 2.75 C 8.011719 2.695313 7.21875 3.1875 6.40625 3.8125 C 5.105469 4.8125 4.3125 6.011719 5.3125 7.3125 C 5.8125 7.914063 6.488281 8.304688 7.1875 8.40625 L 7.3125 8.3125 C 8.011719 7.710938 8.699219 7.488281 9.5 7.6875 C 9.5 6.886719 9.992188 6.195313 10.59375 5.59375 L 10.6875 5.59375 C 10.6875 4.894531 10.5 4.101563 10 3.5 C 9.625 3.011719 9.195313 2.78125 8.75 2.75 Z M 11 4 L 11 6.3125 C 10.898438 6.3125 10.914063 6.304688 10.8125 6.40625 C 10.210938 6.804688 9.6875 7.488281 9.6875 8.1875 C 9.488281 8.1875 9.386719 8.09375 9.1875 8.09375 C 8.789063 8.09375 8.300781 8.199219 8 8.5 C 7.800781 8.601563 7.695313 8.710938 7.59375 8.8125 L 5.5 8.1875 L 4.90625 10.09375 L 7 10.6875 C 7 10.789063 7.09375 10.992188 7.09375 11.09375 C 7.292969 11.695313 7.804688 12.207031 8.40625 12.40625 C 8.207031 12.804688 8 13.210938 8 13.8125 C 8 14.210938 8.113281 14.511719 8.3125 14.8125 C 8.3125 14.914063 8.40625 14.898438 8.40625 15 L 7.1875 16.6875 L 8.8125 17.90625 L 10 16 L 10.1875 16 C 10.886719 16 11.601563 15.5 12 15 C 12.398438 15.5 12.988281 16 13.6875 16 L 13.90625 16 L 15.40625 18.09375 L 17 16.90625 L 15.6875 14.6875 C 15.886719 14.386719 15.90625 14.085938 15.90625 13.6875 C 15.90625 13.1875 15.707031 12.707031 15.40625 12.40625 C 16.007813 12.207031 16.488281 11.695313 16.6875 11.09375 C 16.6875 10.992188 16.8125 10.789063 16.8125 10.6875 L 18.90625 10.1875 L 18.40625 8.3125 L 16.1875 8.90625 L 15.90625 8.59375 C 15.507813 8.292969 15.09375 8.1875 14.59375 8.1875 C 14.394531 8.1875 14.292969 8.210938 14.09375 8.3125 C 14.09375 7.511719 13.695313 6.898438 13.09375 6.5 C 13.09375 6.5 13 6.507813 13 6.40625 L 13 4 Z M 12 10 C 12.601563 10 13 10.398438 13 11 C 13 11.601563 12.601563 12 12 12 C 11.398438 12 11 11.601563 11 11 C 11 10.398438 11.398438 10 12 10 Z M 4.59375 10.53125 C 4.40625 10.558594 4.199219 10.613281 4 10.6875 C 2.398438 11.1875 2.5 12.585938 3 14.1875 C 3.5 15.789063 4.210938 16.90625 5.8125 16.40625 C 6.511719 16.207031 7.101563 15.601563 7.5 15 C 7.5 15 7.507813 14.90625 7.40625 14.90625 C 7.304688 14.105469 7.289063 13.386719 7.6875 12.6875 C 6.988281 12.386719 6.386719 11.707031 6.1875 10.90625 L 6.1875 10.8125 C 5.664063 10.585938 5.160156 10.445313 4.59375 10.53125 Z M 19 10.625 C 18.625 10.636719 18.257813 10.710938 17.90625 10.8125 L 17.90625 10.90625 C 17.605469 11.804688 17.011719 12.300781 16.3125 12.5 C 16.710938 13.199219 16.707031 14.113281 16.40625 14.8125 L 16.40625 14.90625 C 16.707031 15.507813 17.300781 16.105469 18 16.40625 C 19.5 17.007813 20.304688 15.914063 20.90625 14.3125 C 21.507813 12.8125 21.59375 11.414063 20.09375 10.8125 C 19.742188 10.664063 19.375 10.613281 19 10.625 Z M 12 15.8125 C 11.5 16.414063 10.707031 17 9.90625 17 L 9.8125 17 C 9.3125 17.5 9 18.199219 9 19 C 9 20.699219 10.300781 21 12 21 C 13.699219 21 15 20.699219 15 19 C 15 18.199219 14.6875 17.5 14.1875 17 L 14.09375 17 C 13.195313 17 12.5 16.414063 12 15.8125 Z"/></svg>